<svg width="25" height="25" viewBox="0 0 25 25" fill="none" xmlns="http://www.w3.org/2000/svg">
<path d="M9.18134 17.5811H5.78574C4.52731 17.5811 3.8981 17.5811 3.76572 17.4833C3.61698 17.3736 3.58064 17.3088 3.56453 17.1246C3.5502 16.9607 3.93585 16.3297 4.70714 15.0676C5.50349 13.7646 6.17969 11.8673 6.17969 9.18105C6.17969 7.69584 6.81183 6.27146 7.93705 5.22126C9.06227 4.17105 10.5884 3.58105 12.1797 3.58105C13.771 3.58105 15.2971 4.17105 16.4223 5.22126C17.5475 6.27146 18.1797 7.69584 18.1797 9.18105C18.1797 11.8673 18.8559 13.7646 19.6522 15.0676C20.4235 16.3297 20.8092 16.9607 20.7948 17.1246C20.7787 17.3088 20.7424 17.3736 20.5937 17.4833C20.4613 17.5811 19.8321 17.5811 18.5736 17.5811H15.1797M9.18134 17.5811L9.17969 18.5811C9.17969 20.2379 10.5228 21.5811 12.1797 21.5811C13.8365 21.5811 15.1797 20.2379 15.1797 18.5811V17.5811M9.18134 17.5811H15.1797" stroke="#232323" stroke-width="2" stroke-linecap="round" stroke-linejoin="round"/>
</svg>
